{"asset":{"version":"2.0","generator":"VECTARY"},"nodes":[{"translation":[0,0.6003046836617503,-0.021283070202887642],"scale":[0.022636050049174065,0.0004456842795888124,0.016083402505769628],"rotation":[-0.7071067811865475,0,0,0.7071067811865476],"name":"Box","mesh":0},{"translation":[-0.999697607925026,0.5386551802417465,0.03628567382962797],"scale":[0.0007417830902085445,0.0007417830902085445,0.0007417830902085445],"rotation":[0,0,0,1],"name":"splbslogo 2","mesh":1},{"translation":[0,1.407184309661666,0],"scale":[0.008651475368555372,0.008651475368555372,0.008651475368555372],"rotation":[-1.1102230246251565e-16,0,0,1],"name":"george","mesh":2},{"translation":[-1.3241399556552444,3.655946622798031,6.15902539643994],"scale":[1,1,1],"rotation":[-0.1761953790910793,-0.10366793870497426,-0.018663281115677305,0.9787031362009677],"name":"Camera","camera":0}],"materials":[{"pbrMetallicRoughness":{"baseColorFactor":[0.12198571316961948,0.03287591694838383,0.8591735696585323,1],"metallicFactor":0,"roughnessFactor":0},"name":"Display material","emissiveFactor":[0,0,0],"alphaMode":"OPAQUE","doubleSided":false},{"pbrMetallicRoughness":{"baseColorFactor":[0,0,0,1],"baseColorTexture":{"index":0,"extensions":{"KHR_texture_transform":{"offset":[0,0],"scale":[1,1],"rotation":0}},"texCoord":0},"metallicFactor":0,"roughnessFactor":1},"name":"","emissiveTexture":{"index":1,"extensions":{"KHR_texture_transform":{"offset":[0,0],"scale":[1,1],"rotation":0}},"texCoord":0},"emissiveFactor":[1,1,1],"alphaMode":"BLEND","doubleSided":true},{"pbrMetallicRoughness":{"baseColorFactor":[1,1,1,1],"baseColorTexture":{"index":2,"extensions":{"KHR_texture_transform":{"offset":[0,0],"scale":[1,1],"rotation":0}},"texCoord":0},"metallicFactor":0,"roughnessFactor":1},"name":"","emissiveTexture":{"index":3,"extensions":{"KHR_texture_transform":{"offset":[0,0],"scale":[1,1],"rotation":0}},"texCoord":0},"emissiveFactor":[0,0,0],"alphaMode":"BLEND","doubleSided":true}],"meshes":[{"primitives":[{"mode":4,"attributes":{"POSITION":1,"NORMAL":2,"TEXCOORD_0":3},"material":0,"indices":0}]},{"primitives":[{"mode":4,"attributes":{"POSITION":5,"NORMAL":6,"TEXCOORD_0":7},"material":1,"indices":4}]},{"primitives":[{"mode":4,"attributes":{"POSITION":9,"NORMAL":10,"TEXCOORD_0":11},"material":2,"indices":8}]}],"accessors":[{"bufferView":0,"byteOffset":0,"componentType":5125,"count":144,"type":"SCALAR"},{"bufferView":1,"byteOffset":0,"componentType":5126,"count":54,"max":[50,50,100],"min":[-50,-50,0],"type":"VEC3"},{"bufferView":2,"byteOffset":0,"componentType":5126,"count":54,"type":"VEC3"},{"bufferView":3,"byteOffset":0,"componentType":5126,"count":54,"type":"VEC2"},{"bufferView":4,"byteOffset":0,"componentType":5125,"count":150,"type":"SCALAR"},{"bufferView":5,"byteOffset":0,"componentType":5126,"count":36,"max":[128,30.5,0.20000000298023224],"min":[-128,-30.5,0.20000000298023224],"type":"VEC3"},{"bufferView":6,"byteOffset":0,"componentType":5126,"count":36,"type":"VEC3"},{"bufferView":7,"byteOffset":0,"componentType":5126,"count":36,"type":"VEC2"},{"bufferView":8,"byteOffset":0,"componentType":5125,"count":150,"type":"SCALAR"},{"bufferView":9,"byteOffset":0,"componentType":5126,"count":36,"max":[128,90.84849548339844,0.20000000298023224],"min":[-128,-90.84849548339844,0.20000000298023224],"type":"VEC3"},{"bufferView":10,"byteOffset":0,"componentType":5126,"count":36,"type":"VEC3"},{"bufferView":11,"byteOffset":0,"componentType":5126,"count":36,"type":"VEC2"}],"bufferViews":[{"buffer":0,"byteOffset":0,"byteLength":576,"target":34963},{"buffer":0,"byteOffset":576,"byteLength":648,"target":34962},{"buffer":0,"byteOffset":1224,"byteLength":648,"target":34962},{"buffer":0,"byteOffset":1872,"byteLength":432,"target":34962},{"buffer":0,"byteOffset":2304,"byteLength":600,"target":34963},{"buffer":0,"byteOffset":2904,"byteLength":432,"target":34962},{"buffer":0,"byteOffset":3336,"byteLength":432,"target":34962},{"buffer":0,"byteOffset":3768,"byteLength":288,"target":34962},{"buffer":0,"byteOffset":4056,"byteLength":600,"target":34963},{"buffer":0,"byteOffset":4656,"byteLength":432,"target":34962},{"buffer":0,"byteOffset":5088,"byteLength":432,"target":34962},{"buffer":0,"byteOffset":5520,"byteLength":288,"target":34962}],"textures":[{"sampler":0,"source":0},{"sampler":0,"source":1},{"sampler":0,"source":2},{"sampler":0,"source":3}],"images":[{"uri":"2c6b7cba-e71b-4c68-abcc-444a1ab2e720.png","mimeType":"image/png"},{"uri":"c030266e-d979-433f-9bf3-9f938b6af337.jpg","mimeType":"image/jpeg"},{"uri":"f9f2a6c0-6731-4188-9900-a21d5e71b713.png","mimeType":"image/png"},{"uri":"dcb5d5f3-d00a-4f56-a5ee-f28bdedb8dc8.jpg","mimeType":"image/jpeg"}],"samplers":[{"wrapS":33071,"wrapT":33071}],"cameras":[{"name":"Camera","type":"perspective","extras":{"targetDistance":6.708934856213321},"perspective":{"aspectRatio":1.3907427341227125,"yfov":0.6108652381980153,"zfar":274.92701723783,"znear":0.0271635622954615}}],"scene":0,"scenes":[{"nodes":[0,1,2,3],"name":"FloydDigitalMural1"}],"extensionsUsed":["KHR_texture_transform"],"buffers":[{"byteLength":5808,"uri":"FloydDigitalMural1.bin"}]}